<!DOCTYPE svg PUBLIC "-//W3C//DTD SVG 20010904//EN" "http://www.w3.org/TR/2001/REC-SVG-20010904/DTD/svg10.dtd">
<svg version="1.0" xmlns="http://www.w3.org/2000/svg" width="600px" height="601px" viewBox="0 0 6000 6010" preserveAspectRatio="xMidYMid meet">
<g id="layer1" fill="#254f5f" stroke="none">
 <path d="M2760 5259 c-126 -11 -319 -44 -333 -58 -6 -6 16 -43 61 -104 322 -435 718 -777 1197 -1036 l149 -80 46 26 c25 15 63 37 85 48 38 21 40 24 46 81 10 92 10 285 -1 449 -12 175 -46 419 -63 455 -22 45 -301 146 -511 185 -201 37 -472 51 -676 34z"/>
 <path d="M2000 5046 c-115 -52 -237 -124 -347 -202 -98 -71 -282 -232 -319 -281 l-27 -35 13 -107 c45 -394 167 -807 339 -1148 l49 -99 72 4 c85 5 177 -11 244 -43 l48 -23 88 59 c187 124 422 246 655 339 217 86 387 136 624 184 84 17 154 36 154 41 0 6 -31 28 -69 49 -396 224 -644 407 -909 671 -150 150 -275 297 -393 463 -45 64 -93 129 -105 145 l-22 27 -95 -44z"/>
 <path d="M4324 4816 c-3 -8 -1 -72 6 -142 6 -70 10 -234 9 -364 -1 -131 1 -242 5 -248 3 -5 30 -24 59 -40 70 -39 130 -108 173 -199 l35 -73 42 0 c59 0 289 -35 392 -59 48 -12 91 -18 97 -15 12 8 5 36 -39 148 -82 210 -204 424 -333 585 -137 171 -433 441 -446 407z"/>
 <path d="M980 4079 c-270 -461 -354 -1065 -225 -1614 40 -170 159 -478 192 -498 5 -4 50 53 99 126 88 131 198 275 287 374 l46 53 -15 42 c-9 24 -18 81 -21 129 -6 98 10 170 59 259 l30 56 -30 59 c-144 287 -258 606 -328 919 -18 82 -38 154 -43 159 -5 5 -25 -19 -51 -64z"/>
 <path d="M4560 3384 c-73 -129 -180 -204 -333 -234 l-79 -15 -47 -130 c-27 -72 -60 -159 -76 -195 -36 -87 -157 -328 -208 -415 -70 -122 -223 -346 -312 -459 l-87 -109 21 -63 c12 -38 21 -90 21 -128 0 -39 5 -68 13 -74 21 -17 276 -109 407 -146 157 -45 316 -79 494 -106 l140 -21 79 78 c289 285 495 631 592 995 59 221 70 320 70 635 0 258 -2 294 -16 309 -27 26 -282 85 -494 114 -44 5 -96 12 -117 15 -35 5 -37 3 -68 -51z"/>
 <path d="M3625 3404 c-440 -79 -828 -223 -1195 -444 -74 -44 -141 -87 -148 -94 -11 -11 -12 -27 -2 -88 13 -89 4 -161 -34 -261 l-26 -69 48 -56 c80 -94 417 -392 443 -392 5 0 30 13 56 29 101 62 223 76 346 42 l67 -18 79 96 c248 304 439 646 562 1010 l29 85 -29 30 c-15 17 -47 57 -70 89 -23 31 -43 57 -44 56 -1 0 -38 -7 -82 -15z"/>
 <path d="M1548 2218 c-127 -148 -233 -294 -342 -471 l-67 -109 27 -36 c138 -186 325 -362 527 -500 l88 -60 99 44 c223 98 440 216 588 317 71 49 73 52 67 81 -18 77 -22 135 -13 186 11 63 25 47 -168 205 -60 50 -175 154 -255 232 l-146 143 -59 -11 c-74 -14 -165 -6 -235 20 -30 12 -55 21 -56 21 -1 0 -26 -28 -55 -62z"/>
 <path d="M3285 1244 c-48 -41 -144 -82 -222 -95 -88 -14 -190 -1 -270 36 l-52 24 -143 -95 c-78 -53 -207 -132 -286 -176 -79 -45 -140 -84 -135 -89 15 -14 244 -79 367 -104 426 -85 821 -53 1235 102 104 38 307 136 330 158 18 17 30 13 -154 55 -153 35 -371 105 -533 169 -56 23 -103 41 -105 41 -1 -1 -15 -12 -32 -26z"/>
 </g>

</svg>
